:version 1.10
:name ASF
:units
  mass 1
  length 1
  angle deg
:documentation
  ASF file generated by Kaydara
:root
  axis xyz
  order  tx ty tz rx ry rz
  position 0 0 0
  orientation 0 0 0
:bonedata
  begin
    id 1
    name RightUpLegDummy
    direction -0.718183 -0.695806 0.00816078
    length 4.904
    axis 0 0 0 xyz
  end
  begin
    id 2
    name RightUpLeg
    direction 3.53989e-006 -0.995788 0.0916897
    length 17.4976
    axis -3.49089 -0.000906621 0.000287158 xyz
    dof rx ry rz
  end
  begin
    id 3
    name RightLeg
    direction 0.00371093 -0.995096 -0.0988418
    length 16.5821
    axis 3.68512 0.0193738 -0.131023 xyz
    dof rx ry rz
  end
  begin
    id 4
    name RightFoot
    direction 0.000791514 -0.46099 0.887405
    length 3.77069
    axis 4.84075e-005 -0.120479 -0.188788 xyz
    dof rx ry rz
  end
  begin
    id 5
    name RightToes
    direction 0.00124746 -0.014064 0.9999
    length 3.85082
    axis 0.00048216 0.542163 -0.142577 xyz
    dof rx ry rz
  end
  begin
    id 6
    name SpineDummy
    direction 8.36599e-015 1 5.97571e-016
    length 4.6813
    axis 0 0 0 xyz
  end
  begin
    id 7
    name Spine
    direction -4.63632e-008 0.999988 0.00495137
    length 10.1015
    axis -0.00138897 0.000121419 3.25764e-006 xyz
    dof rx ry rz
  end
  begin
    id 8
    name Spine1
    direction 0 0 0
    length 0
    axis -0.00138896 0.000121452 2.39764e-006 xyz
    dof rx ry rz
  end
  begin
    id 9
    name HEadDummy
    direction -3.91456e-008 0.999999 0.00127422
    length 3.43865
    axis -0.00138896 0.000121452 2.39764e-006 xyz
  end
  begin
    id 10
    name HEad
    direction -0.0222688 0.980941 0.193023
    length 5.12695
    axis -0.00138895 0.000121452 2.39764e-006 xyz
    dof rx ry rz
  end
  begin
    id 11
    name LeftShoulder1Dummy
    direction 0.998891 -0.0402508 -0.0244456
    length 3.5433
    axis -0.00138896 0.000121452 2.39764e-006 xyz
  end
  begin
    id 12
    name LeftShoulder1
    direction 0.99951 -0.000327743 0.0313091
    length 4.05031
    axis -0.00138896 0.000121452 2.39764e-006 xyz
    dof rx ry rz
  end
  begin
    id 13
    name LeftArm
    direction 0.998561 -0.00100054 -0.0536182
    length 10.3537
    axis -23.1894 0.134784 0.96751 xyz
    dof rx ry rz
  end
  begin
    id 14
    name LeftForeArm
    direction 0.998903 0.00866434 0.046012
    length 8.70632
    axis -9.91835 -0.06569 -0.177792 xyz
    dof rx ry rz
  end
  begin
    id 15
    name LeftHand
    direction 0.992938 -0.0411636 0.11126
    length 5.32135
    axis -0.00960227 -0.00340091 0.185174 xyz
    dof rx ry rz
  end
  begin
    id 16
    name RightShoulderDummy
    direction -0.998891 -0.0402509 -0.0244414
    length 3.5433
    axis -0.00138896 0.000121452 2.39764e-006 xyz
  end
  begin
    id 17
    name RightShoulder
    direction -0.99951 -0.000327827 0.0313133
    length 4.05031
    axis 0.215806 0.000203644 -0.00680151 xyz
    dof rx ry rz
  end
  begin
    id 18
    name RightArm
    direction -0.998573 -0.000999583 -0.053403
    length 10.3947
    axis -23.2009 -0.134239 -0.9641 xyz
    dof rx ry rz
  end
  begin
    id 19
    name RightForeArm
    direction -0.998898 0.00868026 0.0461306
    length 8.68355
    axis -9.92322 0.0658061 0.178869 xyz
    dof rx ry rz
  end
  begin
    id 20
    name RightHand
    direction -0.992843 -0.0414603 0.112003
    length 5.28593
    axis -0.00960634 0.00330671 -0.185226 xyz
    dof rx ry rz
  end
  begin
    id 21
    name LeftUpLegDummy
    direction 0.718183 -0.695806 0.00816078
    length 4.904
    axis 0 0 0 xyz
  end
  begin
    id 22
    name LeftUpLeg
    direction -6.8115e-006 -0.995793 0.0916336
    length 17.4976
    axis -3.48766 0.00143441 -0.000523914 xyz
    dof rx ry rz
  end
  begin
    id 23
    name LeftLeg
    direction -0.00601357 -0.995091 -0.0987824
    length 16.5821
    axis 3.68177 -0.00654038 -0.00028478 xyz
    dof rx ry rz
  end
  begin
    id 24
    name LeftFoot
    direction -0.00417578 -0.460984 0.887399
    length 3.77069
    axis 1.87232e-006 4.66002e-005 -8.1837e-006 xyz
    dof rx ry rz
  end
  begin
    id 25
    name LeftToes
    direction 0.00818058 -0.00485161 0.999955
    length 3.85048
    axis 1.06246e-005 4.65855e-005 -8.18502e-006 xyz
    dof rx ry rz
  end
:hierarchy
  begin
    root RightUpLegDummy SpineDummy LeftUpLegDummy
    RightUpLegDummy RightUpLeg
    RightUpLeg RightLeg
    RightLeg RightFoot
    RightFoot RightToes
    SpineDummy Spine
    Spine Spine1
    Spine1 HEadDummy LeftShoulder1Dummy RightShoulderDummy
    HEadDummy HEad
    LeftShoulder1Dummy LeftShoulder1
    LeftShoulder1 LeftArm
    LeftArm LeftForeArm
    LeftForeArm LeftHand
    RightShoulderDummy RightShoulder
    RightShoulder RightArm
    RightArm RightForeArm
    RightForeArm RightHand
    LeftUpLegDummy LeftUpLeg
    LeftUpLeg LeftLeg
    LeftLeg LeftFoot
    LeftFoot LeftToes
  end

:SAMPLES-PER-SECOND 30
:FULLY-SPECIFIED
:DEGREES
19
root  2.68138 40.2011 0.575789 0.767676 -86.3487 -1.86996
RightUpLeg  1.62313 -8.87621 -9.73043
RightLeg  -0.353011 -14.8402 -0.78002
RightFoot  5.93485 -1.79711 12.0584
RightToes  -5.28226e-011 1.30204e-014 -6.03759e-014
Spine  1.33569 -0.326135 0.758114
Spine1  6.54392 0.0353013 -1.49158
HEad  -5.0114 -9.55225 -0.804147
LeftShoulder1  2.45445 -6.03001 -19.2458
LeftArm  2.16727 10.8066 -54.1729
LeftForeArm  6.15666 -9.97969 -12.9763
LeftHand  -0.331792 0.978456 8.69799
RightShoulder  1.76284 2.99934 20.8082
RightArm  3.60579 -5.98706 52.9656
RightForeArm  19.8592 7.73068 14.1315
RightHand  -0.218048 -3.59197 -13.5514
LeftUpLeg  1.30584 9.62138 9.73013
LeftLeg  1.83706 -2.19736 1.52672
LeftFoot  0.119699 1.37258 -13.6343
LeftToes  -2.42178e-010 -1.66495e-011 -2.88221e-011
20
root  2.67082 40.1976 0.572461 0.621101 -86.4178 -1.67253
RightUpLeg  1.51348 -8.88528 -9.73272
RightLeg  -0.240238 -14.7736 -0.805569
RightFoot  5.87629 -1.79261 12.0677
RightToes  -5.28226e-011 1.30204e-014 -6.03759e-014
Spine  1.35377 -0.293352 0.556055
Spine1  6.43618 0.00992368 -1.21982
HEad  -4.84207 -9.61404 -0.74027
LeftShoulder1  2.44498 -5.94478 -19.3874
LeftArm  2.20124 10.8898 -54.0673
LeftForeArm  6.02394 -10.0493 -12.9475
LeftHand  -0.321369 1.12688 8.69919
RightShoulder  1.75484 3.03283 20.5218
RightArm  3.48713 -6.10711 53.1684
RightForeArm  19.947 7.75605 14.1065
RightHand  -0.214415 -3.60267 -13.5174
LeftUpLeg  1.26423 9.61305 9.71164
LeftLeg  1.87415 -2.08808 1.52403
LeftFoot  0.0932476 1.36768 -13.6177
LeftToes  -2.42178e-010 -1.66495e-011 -2.88221e-011
21
root  2.66038 40.1934 0.567304 0.760552 -86.4983 -1.82475
RightUpLeg  1.47084 -8.89934 -9.72645
RightLeg  -0.128554 -14.6694 -0.817785
RightFoot  5.80917 -1.78776 12.0804
RightToes  -5.28226e-011 1.30204e-014 -6.03759e-014
Spine  1.37696 -0.259449 0.485689
Spine1  6.42044 0.0262484 -1.11786
HEad  -4.76539 -9.67899 -0.65032
LeftShoulder1  2.44437 -5.90767 -19.4899
LeftArm  1.94233 10.9078 -53.9606
LeftForeArm  5.99536 -10.0346 -12.9277
LeftHand  -0.309432 1.28564 8.68723
RightShoulder  1.76091 3.07547 20.4099
RightArm  3.41952 -6.17716 53.2475
RightForeArm  19.9455 7.85074 14.055
RightHand  -0.214229 -3.60098 -13.3934
LeftUpLeg  1.29039 9.62084 9.7336
LeftLeg  1.92418 -2.00792 1.52744
LeftFoot  0.0336782 1.36131 -13.633
LeftToes  -2.42178e-010 -1.66495e-011 -2.88221e-011
22
root  2.65006 40.1901 0.560767 0.975142 -86.5532 -2.09972
RightUpLeg  1.49056 -8.91396 -9.71876
RightLeg  -0.0260765 -14.577 -0.827125
RightFoot  5.7418 -1.7798 12.0729
RightToes  -5.28226e-011 1.30204e-014 -6.03759e-014
Spine  1.34398 -0.233964 0.504507
Spine1  6.57483 0.0698579 -1.16672
HEad  -4.84943 -9.73308 -0.551611
LeftShoulder1  2.45581 -5.91759 -19.5911
LeftArm  1.6093 10.8239 -53.8093
LeftForeArm  6.09401 -9.97369 -12.9126
LeftHand  -0.30517 1.23914 8.66472
RightShoulder  1.7651 3.0845 20.4694
RightArm  3.2334 -6.12524 53.2349
RightForeArm  19.9951 7.89231 14.012
RightHand  -0.218837 -3.57053 -13.2437
LeftUpLeg  1.33712 9.61378 9.76215
LeftLeg  2.02134 -1.97029 1.55703
LeftFoot  -0.0305671 1.35742 -13.6492
LeftToes  -2.42178e-010 -1.66495e-011 -2.88221e-011
23
root  2.64334 40.1886 0.552841 1.06485 -86.567 -2.25124
RightUpLeg  1.52798 -8.91712 -9.70843
RightLeg  0.0511386 -14.5453 -0.843803
RightFoot  5.69194 -1.77022 12.0433
RightToes  -5.28226e-011 1.30204e-014 -6.03759e-014
Spine  1.28652 -0.227043 0.472782
Spine1  6.78547 0.0831279 -1.17408
HEad  -5.01327 -9.77264 -0.537866
LeftShoulder1  2.47787 -5.94562 -19.7588
LeftArm  1.48072 10.7158 -53.6298
LeftForeArm  6.09118 -9.98243 -12.8828
LeftHand  -0.304004 1.12795 8.64902
RightShoulder  1.76066 3.05369 20.5293
RightArm  2.82119 -5.96917 53.2375
RightForeArm  20.346 7.78092 14.004
RightHand  -0.226674 -3.49119 -13.1996
LeftUpLeg  1.37139 9.59259 9.77902
LeftLeg  2.1107 -1.97621 1.59624
LeftFoot  -0.0558109 1.35449 -13.6392
LeftToes  -2.42178e-010 -1.66495e-011 -2.88221e-011
24
root  2.64328 40.1869 0.542841 1.25851 -86.5509 -2.48506
RightUpLeg  1.54647 -8.8986 -9.67562
RightLeg  0.109165 -14.5786 -0.870023
RightFoot  5.66187 -1.76442 12.0234
RightToes  -5.28226e-011 1.30204e-014 -6.03759e-014
Spine  1.27324 -0.242654 0.367859
Spine1  6.91961 0.0460095 -1.07667
HEad  -5.15968 -9.82369 -0.610565
LeftShoulder1  2.49838 -5.9595 -19.9503
LeftArm  1.53919 10.637 -53.5067
LeftForeArm  5.84193 -10.0632 -12.8491
LeftHand  -0.303329 1.26312 8.72836
RightShoulder  1.75218 3.02538 20.5153
RightArm  2.44693 -5.82468 53.2909
RightForeArm  20.8027 7.67424 13.9932
RightHand  -0.239909 -3.37936 -13.2532
LeftUpLeg  1.38943 9.59177 9.8085
LeftLeg  2.14779 -2.01743 1.61621
LeftFoot  -0.0553154 1.35242 -13.6265
LeftToes  -2.42178e-010 -1.66495e-011 -2.88221e-011
25
root  2.64888 40.186 0.530813 1.70507 -86.5137 -2.94585
RightUpLeg  1.53002 -8.86952 -9.62007
RightLeg  0.171789 -14.6465 -0.896895
RightFoot  5.63617 -1.7636 12.0372
RightToes  -5.28226e-011 1.30204e-014 -6.03759e-014
Spine  1.29356 -0.269708 0.244382
Spine1  6.98012 -0.0142876 -0.933952
HEad  -5.27937 -9.88272 -0.689898
LeftShoulder1  2.51233 -5.96124 -20.103
LeftArm  1.57418 10.5544 -53.4634
LeftForeArm  5.5791 -10.1153 -12.834
LeftHand  -0.301718 1.53858 8.96877
RightShoulder  1.74846 3.03031 20.4323
RightArm  2.34423 -5.80761 53.4131
RightForeArm  20.9753 7.78081 13.927
RightHand  -0.24871 -3.30193 -13.2659
LeftUpLeg  1.37236 9.62091 9.86165
LeftLeg  2.16921 -2.08596 1.61171
LeftFoot  -0.0656095 1.35306 -13.6429
LeftToes  -2.42178e-010 -1.66495e-011 -2.88221e-011
26
root  2.6567 40.1856 0.518118 2.09424 -86.4675 -3.32165
RightUpLeg  1.48064 -8.84898 -9.5703
RightLeg  0.240014 -14.7121 -0.91533
RightFoot  5.60824 -1.76468 12.0651
RightToes  -5.28226e-011 1.30204e-014 -6.03759e-014
Spine  1.27504 -0.288103 0.110559
Spine1  7.05174 -0.0670951 -0.781836
HEad  -5.39942 -9.88799 -0.738468
LeftShoulder1  2.52689 -5.97529 -20.2255
LeftArm  1.51202 10.4407 -53.4566
LeftForeArm  5.62157 -10.109 -12.8277
LeftHand  -0.311203 1.52559 9.24353
RightShoulder  1.741 3.03996 20.2669
RightArm  2.31082 -5.89435 53.648
RightForeArm  20.9382 8.00432 13.8271
RightHand  -0.248884 -3.29398 -13.2259
LeftUpLeg  1.3081 9.65163 9.91031
LeftLeg  2.21349 -2.16488 1.5972
LeftFoot  -0.078305 1.35512 -13.6707
LeftToes  -2.42178e-010 -1.66495e-011 -2.88221e-011
27
root  2.66387 40.1857 0.506216 2.2733 -86.4407 -3.4815
RightUpLeg  1.43848 -8.83184 -9.53405
RightLeg  0.273951 -14.7553 -0.925121
RightFoot  5.59284 -1.76508 12.0692
RightToes  -5.28226e-011 1.30204e-014 -6.03759e-014
Spine  1.20579 -0.289705 -0.0275847
Spine1  7.17048 -0.0979459 -0.650872
HEad  -5.49959 -9.81908 -0.779018
LeftShoulder1  2.54356 -6.00225 -20.3324
LeftArm  1.47569 10.3243 -53.4804
LeftForeArm  5.84252 -10.1122 -12.8102
LeftHand  -0.33643 1.22028 9.30947
RightShoulder  1.72267 3.01451 20.0763
RightArm  2.07972 -5.94607 53.9378
RightForeArm  21.0542 8.07153 13.7746
RightHand  -0.250063 -3.29724 -13.3124
LeftUpLeg  1.25326 9.67412 9.945
LeftLeg  2.24136 -2.2295 1.58215
LeftFoot  -0.0632501 1.35601 -13.6708
LeftToes  -2.42178e-010 -1.66495e-011 -2.88221e-011
28
root  2.66876 40.186 0.495519 2.65987 -86.4483 -3.88589
RightUpLeg  1.46525 -8.79986 -9.48319
RightLeg  0.23562 -14.7795 -0.92401
RightFoot  5.60196 -1.76427 12.0442
RightToes  -5.28226e-011 1.30204e-014 -6.03759e-014
Spine  1.1583 -0.284189 -0.108926
Spine1  7.29898 -0.104338 -0.599397
HEad  -5.53781 -9.75578 -0.825961
LeftShoulder1  2.55517 -6.01781 -20.4162
LeftArm  1.57725 10.2271 -53.5461
LeftForeArm  5.78775 -10.165 -12.7926
LeftHand  -0.338512 1.11267 9.13936
RightShoulder  1.70791 2.97282 20.0146
RightArm  1.8463 -5.90368 54.1046
RightForeArm  21.2275 7.97084 13.7944
RightHand  -0.25996 -3.25643 -13.6101
LeftUpLeg  1.28234 9.71791 10.0047
LeftLeg  2.20973 -2.27955 1.56492
LeftFoot  -0.0323711 1.35605 -13.6509
LeftToes  -2.42178e-010 -1.66495e-011 -2.88221e-011
29
root  2.67228 40.1863 0.485768 3.49992 -86.4709 -4.78198
RightUpLeg  1.55456 -8.76237 -9.41178
RightLeg  0.149041 -14.7915 -0.902778
RightFoot  5.62157 -1.76409 12.0224
RightToes  -5.28226e-011 1.30204e-014 -6.03759e-014
Spine  1.17733 -0.279916 -0.115583
Spine1  7.38854 -0.096279 -0.617921
HEad  -5.52433 -9.7599 -0.867393
LeftShoulder1  2.56063 -6.01114 -20.4977
LeftArm  1.78267 10.1423 -53.6109
LeftForeArm  5.36557 -10.2514 -12.7836
LeftHand  -0.31375 1.38417 9.00903
RightShoulder  1.71062 2.95992 20.1164
RightArm  1.97743 -5.8534 54.0842
RightForeArm  21.0068 7.93984 13.8296
RightHand  -0.268257 -3.23326 -13.9245
LeftUpLeg  1.36624 9.78984 10.1046
LeftLeg  2.16311 -2.33395 1.5465
LeftFoot  -0.0212785 1.35781 -13.6547
LeftToes  -2.42178e-010 -1.66495e-011 -2.88221e-011
30
root  2.67869 40.1868 0.477185 4.23243 -86.4873 -5.55075
RightUpLeg  1.60948 -8.74864 -9.362
RightLeg  0.086945 -14.7842 -0.866893
RightFoot  5.62944 -1.76596 12.0292
RightToes  -5.28226e-011 1.30204e-014 -6.03759e-014
Spine  1.21932 -0.274581 -0.124108
Spine1  7.42564 -0.0881083 -0.629087
HEad  -5.51518 -9.77165 -0.889922
LeftShoulder1  2.56206 -5.98949 -20.5795
LeftArm  1.99106 10.0841 -53.6551
LeftForeArm  4.99991 -10.378 -12.751
LeftHand  -0.300251 1.59198 9.05926
RightShoulder  1.71756 2.96519 20.2087
RightArm  2.34778 -5.85749 54.0389
RightForeArm  20.4649 8.01289 13.8542
RightHand  -0.261028 -3.30993 -14.0207
LeftUpLeg  1.40108 9.8385 10.1822
LeftLeg  2.15735 -2.3749 1.53952
LeftFoot  -0.0223844 1.36142 -13.6859
LeftToes  -2.42178e-010 -1.66495e-011 -2.88221e-011
31
root  2.69113 40.1881 0.470823 4.25795 -86.5018 -5.56086
RightUpLeg  1.57498 -8.75966 -9.36152
RightLeg  0.0792027 -14.757 -0.84161
RightFoot  5.62926 -1.76904 12.0542
RightToes  -5.28226e-011 1.30204e-014 -6.03759e-014
Spine  1.22713 -0.271908 -0.170959
Spine1  7.44315 -0.0813774 -0.643535
HEad  -5.54518 -9.71198 -0.883545
LeftShoulder1  2.55233 -5.95372 -20.5784
LeftArm  2.16807 10.0768 -53.7549
LeftForeArm  4.94541 -10.5622 -12.6729
LeftHand  -0.312003 1.40308 8.99989
RightShoulder  1.70877 2.94123 20.1683
RightArm  2.45652 -5.85455 54.1247
RightForeArm  20.2506 7.94697 13.9079
RightHand  -0.245591 -3.42779 -13.9265
LeftUpLeg  1.37377 9.82438 10.1789
LeftLeg  2.14299 -2.35738 1.55467
LeftFoot  0.00967348 1.36625 -13.6969
LeftToes  -2.42178e-010 -1.66495e-011 -2.88221e-011
32
root  2.70593 40.1908 0.467305 3.85931 -86.5189 -5.14217
RightUpLeg  1.53156 -8.768 -9.38233
RightLeg  0.0688495 -14.7342 -0.834941
RightFoot  5.64645 -1.77131 12.0689
RightToes  -5.28226e-011 1.30204e-014 -6.03759e-014
Spine  1.19541 -0.288988 -0.180454
Spine1  7.50692 -0.068837 -0.771558
HEad  -5.60918 -9.62127 -0.84637
LeftShoulder1  2.52712 -5.90545 -20.4397
LeftArm  2.33167 10.0929 -53.9484
LeftForeArm  4.94318 -10.7482 -12.5923
LeftHand  -0.323607 1.0554 8.62319
RightShoulder  1.69216 2.89138 20.112
RightArm  2.19007 -5.79555 54.2737
RightForeArm  20.5901 7.68953 13.9911
RightHand  -0.240555 -3.45925 -13.8507
LeftUpLeg  1.38952 9.78795 10.1323
LeftLeg  2.02734 -2.29635 1.57904
LeftFoot  0.0906747 1.37264 -13.6679
LeftToes  -2.42178e-010 -1.66495e-011 -2.88221e-011
33
root  2.71641 40.1945 0.465994 3.62736 -86.5255 -4.93194
RightUpLeg  1.56847 -8.7676 -9.39428
RightLeg  0.00321393 -14.7322 -0.822718
RightFoot  5.68663 -1.77173 12.0597
RightToes  -5.28226e-011 1.30204e-014 -6.03759e-014
Spine  1.13974 -0.334951 -0.10135
Spine1  7.65404 -0.0535063 -1.0375
HEad  -5.6982 -9.60537 -0.790912
LeftShoulder1  2.50013 -5.86495 -20.2556
LeftArm  2.39897 10.0883 -54.1309
LeftForeArm  4.79335 -10.83 -12.5638
LeftHand  -0.32622 0.864382 8.34456
RightShoulder  1.69084 2.86792 20.1946
RightArm  2.04095 -5.75161 54.3322
RightForeArm  20.8856 7.55988 14.0251
RightHand  -0.248056 -3.40301 -13.8738
LeftUpLeg  1.49861 9.79254 10.1188
LeftLeg  1.82656 -2.26771 1.5834
LeftFoot  0.184208 1.38128 -13.6457
LeftToes  -2.42178e-010 -1.66495e-011 -2.88221e-011
